# xmcd
#
# Track frame offsets: 
#        150
#        16564
#        30736
#        43933
#        55333
#        75190
#        85861
#        99382
#        115137
#        129465
#        142638
#        158806
#        171415
#        184364
#        199052
#        219898
#        232937
#        248910
#        264769
#
# Disc length: 3670 seconds
#
# Revision: 3
# Processed by: cddbd v1.5.2PL0 Copyright (c) Steve Scherf et al.
# Submitted via: ExactAudioCopyFreeDBPlugin 1.0
#
DISCID=e90e5413
DTITLE=Various Artist - Holland Dozier Holland:  The Complete 45s Col
DTITLE=lection (Invictus, Hot Wax, Music Merchant), 1969-1977 [Harmles
DTITLE=s box set]
DYEAR=2014
DGENRE=Soul
TTITLE0=Glass House - Heaven is There to Guide Us
TTITLE1=The 8th Day - It's Instrumental to Be Free
TTITLE2=The Chairmen of the Board - Working on a Building Of Love
TTITLE3=Freda Payne - Suddenly It's Yesterday
TTITLE4=Johnn Billy West - Yeah, I'm a Devil
TTITLE5=Billie Sans - I Don't Want to Lose a Good Thing
TTITLE6=The Chairmen of the Board - Bravo Hooray
TTITLE7=The Chairmen of the Board - Elmo James
TTITLE8=The 8th Day - If I Could See the Light (instrumental)
TTITLE9=Lucifer - Don't You (Think the Times A-Comin')
TTITLE10=Freda Payne - The Road We Didn't Take
TTITLE11=Holland-Dozier - Don't Leave Me (instrumental)
TTITLE12=Glass House - Let it Flow
TTITLE13=Harrison Kennedy - Up - The Organization (instrumental)
TTITLE14=Lucifer - Bloodshot Eyes
TTITLE15=Scherrie Payne - It Ain't the World (It's the People in It)
TTITLE16=Melvin Davis - Just as Long
TTITLE17=Danny Woods - It Didn't Take Long
TTITLE18=The 8th Day - Eeny-Meeny-Miny-Mo (Three's a Crowd)
EXTD=
EXTT0=
EXTT1=
EXTT2=
EXTT3=
EXTT4=
EXTT5=
EXTT6=
EXTT7=
EXTT8=
EXTT9=
EXTT10=
EXTT11=
EXTT12=
EXTT13=
EXTT14=
EXTT15=
EXTT16=
EXTT17=
EXTT18=
PLAYORDER=
